<mxfile host="app.diagrams.net" modified="2022-06-19T21:10:39.159Z" agent="5.0 (Macintosh; Intel Mac OS X 10_15_7) AppleWebKit/537.36 (KHTML, like Gecko) Chrome/102.0.0.0 Safari/537.36" etag="isuSsEfg3TdE7LWWJQZO" version="18.0.2" type="github">
  <diagram id="zCdDrIKVRh4dRpCNj2sq" name="Page-1">
    <mxGraphModel dx="746" dy="1790" grid="1" gridSize="10" guides="1" tooltips="1" connect="1" arrows="1" fold="1" page="1" pageScale="1" pageWidth="827" pageHeight="1169" math="0" shadow="0">
      <root>
        <mxCell id="0" />
        <mxCell id="1" parent="0" />
        <mxCell id="k410SBfA1glO5u--8TDk-7" value="" style="rounded=0;whiteSpace=wrap;html=1;fillColor=#f8cecc;strokeColor=#b85450;" parent="1" vertex="1">
          <mxGeometry x="40" y="270" width="680" height="170" as="geometry" />
        </mxCell>
        <mxCell id="k410SBfA1glO5u--8TDk-3" value="" style="rounded=0;whiteSpace=wrap;html=1;fillColor=#ffe6cc;strokeColor=#d79b00;" parent="1" vertex="1">
          <mxGeometry x="40" y="-70" width="680" height="275" as="geometry" />
        </mxCell>
        <mxCell id="k410SBfA1glO5u--8TDk-12" style="edgeStyle=orthogonalEdgeStyle;rounded=0;orthogonalLoop=1;jettySize=auto;html=1;exitX=0.5;exitY=1;exitDx=0;exitDy=0;entryX=0.5;entryY=0;entryDx=0;entryDy=0;fillColor=#ffe6cc;strokeColor=#d79b00;" parent="1" source="k410SBfA1glO5u--8TDk-1" target="k410SBfA1glO5u--8TDk-9" edge="1">
          <mxGeometry relative="1" as="geometry">
            <Array as="points">
              <mxPoint x="414" y="238" />
              <mxPoint x="360" y="238" />
              <mxPoint x="360" y="335" />
            </Array>
          </mxGeometry>
        </mxCell>
        <mxCell id="k410SBfA1glO5u--8TDk-13" style="edgeStyle=orthogonalEdgeStyle;rounded=0;orthogonalLoop=1;jettySize=auto;html=1;fillColor=#fff2cc;strokeColor=#d6b656;dashed=1;" parent="1" source="k410SBfA1glO5u--8TDk-1" target="k410SBfA1glO5u--8TDk-11" edge="1">
          <mxGeometry relative="1" as="geometry">
            <Array as="points">
              <mxPoint x="414" y="190" />
              <mxPoint x="504" y="190" />
            </Array>
          </mxGeometry>
        </mxCell>
        <mxCell id="k410SBfA1glO5u--8TDk-15" style="edgeStyle=orthogonalEdgeStyle;rounded=0;orthogonalLoop=1;jettySize=auto;html=1;entryX=0.5;entryY=1;entryDx=0;entryDy=0;fillColor=#ffe6cc;strokeColor=#d79b00;" parent="1" source="k410SBfA1glO5u--8TDk-1" target="k410SBfA1glO5u--8TDk-14" edge="1">
          <mxGeometry relative="1" as="geometry" />
        </mxCell>
        <mxCell id="n0p4nWnZGmXTk2F-oxNU-4" value="" style="edgeStyle=orthogonalEdgeStyle;rounded=0;orthogonalLoop=1;jettySize=auto;html=1;fillColor=#ffe6cc;strokeColor=#d79b00;" edge="1" parent="1" source="k410SBfA1glO5u--8TDk-1" target="n0p4nWnZGmXTk2F-oxNU-3">
          <mxGeometry relative="1" as="geometry" />
        </mxCell>
        <mxCell id="n0p4nWnZGmXTk2F-oxNU-5" value="" style="edgeStyle=orthogonalEdgeStyle;rounded=0;orthogonalLoop=1;jettySize=auto;html=1;fillColor=#fff2cc;strokeColor=#d6b656;" edge="1" parent="1" source="k410SBfA1glO5u--8TDk-1" target="n0p4nWnZGmXTk2F-oxNU-1">
          <mxGeometry relative="1" as="geometry" />
        </mxCell>
        <mxCell id="n0p4nWnZGmXTk2F-oxNU-9" style="edgeStyle=orthogonalEdgeStyle;rounded=0;orthogonalLoop=1;jettySize=auto;html=1;entryX=0.75;entryY=0;entryDx=0;entryDy=0;exitX=0.5;exitY=1;exitDx=0;exitDy=0;fillColor=#ffe6cc;strokeColor=#d79b00;dashed=1;" edge="1" parent="1" source="k410SBfA1glO5u--8TDk-1" target="n0p4nWnZGmXTk2F-oxNU-6">
          <mxGeometry relative="1" as="geometry">
            <mxPoint x="420" y="150" as="sourcePoint" />
            <Array as="points">
              <mxPoint x="414" y="190" />
              <mxPoint x="350" y="190" />
              <mxPoint x="350" y="250" />
              <mxPoint x="170" y="250" />
            </Array>
          </mxGeometry>
        </mxCell>
        <mxCell id="k410SBfA1glO5u--8TDk-1" value="RemoteAuthentication" style="rounded=0;whiteSpace=wrap;html=1;" parent="1" vertex="1">
          <mxGeometry x="348" y="100" width="132" height="40" as="geometry" />
        </mxCell>
        <mxCell id="k410SBfA1glO5u--8TDk-2" value="CLASSES&lt;br&gt;ABSTRATAS / INTERFACE" style="rounded=1;whiteSpace=wrap;html=1;dashed=1;" parent="1" vertex="1">
          <mxGeometry x="760" y="-70" width="120" height="60" as="geometry" />
        </mxCell>
        <mxCell id="k410SBfA1glO5u--8TDk-4" value="DATA" style="text;html=1;strokeColor=none;fillColor=none;align=center;verticalAlign=middle;whiteSpace=wrap;rounded=0;" parent="1" vertex="1">
          <mxGeometry x="550" y="-100" width="44" height="30" as="geometry" />
        </mxCell>
        <mxCell id="k410SBfA1glO5u--8TDk-8" style="edgeStyle=orthogonalEdgeStyle;rounded=0;orthogonalLoop=1;jettySize=auto;html=1;fillColor=#f8cecc;strokeColor=#b85450;" parent="1" source="k410SBfA1glO5u--8TDk-9" target="k410SBfA1glO5u--8TDk-11" edge="1">
          <mxGeometry relative="1" as="geometry" />
        </mxCell>
        <mxCell id="n0p4nWnZGmXTk2F-oxNU-7" value="" style="edgeStyle=orthogonalEdgeStyle;rounded=0;orthogonalLoop=1;jettySize=auto;html=1;" edge="1" parent="1" source="k410SBfA1glO5u--8TDk-9" target="n0p4nWnZGmXTk2F-oxNU-6">
          <mxGeometry relative="1" as="geometry" />
        </mxCell>
        <mxCell id="k410SBfA1glO5u--8TDk-9" value="Authentication" style="rounded=1;whiteSpace=wrap;html=1;dashed=1;" parent="1" vertex="1">
          <mxGeometry x="264" y="335" width="120" height="40" as="geometry" />
        </mxCell>
        <mxCell id="k410SBfA1glO5u--8TDk-10" value="DOMAIN" style="text;html=1;strokeColor=none;fillColor=none;align=center;verticalAlign=middle;whiteSpace=wrap;rounded=0;" parent="1" vertex="1">
          <mxGeometry x="534" y="240" width="60" height="30" as="geometry" />
        </mxCell>
        <mxCell id="k410SBfA1glO5u--8TDk-11" value="AccountEntity" style="rounded=0;whiteSpace=wrap;html=1;" parent="1" vertex="1">
          <mxGeometry x="444" y="335" width="120" height="40" as="geometry" />
        </mxCell>
        <mxCell id="k410SBfA1glO5u--8TDk-14" value="HttpClient" style="rounded=1;whiteSpace=wrap;html=1;dashed=1;" parent="1" vertex="1">
          <mxGeometry x="354" y="20" width="120" height="40" as="geometry" />
        </mxCell>
        <mxCell id="n0p4nWnZGmXTk2F-oxNU-11" style="edgeStyle=orthogonalEdgeStyle;rounded=0;orthogonalLoop=1;jettySize=auto;html=1;fillColor=#fff2cc;strokeColor=#d6b656;" edge="1" parent="1" source="n0p4nWnZGmXTk2F-oxNU-1">
          <mxGeometry relative="1" as="geometry">
            <mxPoint x="530" y="335" as="targetPoint" />
            <Array as="points">
              <mxPoint x="586" y="238" />
              <mxPoint x="530" y="238" />
              <mxPoint x="530" y="335" />
            </Array>
          </mxGeometry>
        </mxCell>
        <mxCell id="n0p4nWnZGmXTk2F-oxNU-1" value="RemoteAccountModel" style="rounded=0;whiteSpace=wrap;html=1;" vertex="1" parent="1">
          <mxGeometry x="512" y="100" width="148" height="40" as="geometry" />
        </mxCell>
        <mxCell id="n0p4nWnZGmXTk2F-oxNU-8" style="edgeStyle=orthogonalEdgeStyle;rounded=0;orthogonalLoop=1;jettySize=auto;html=1;fillColor=#ffe6cc;strokeColor=#d79b00;" edge="1" parent="1" source="n0p4nWnZGmXTk2F-oxNU-3" target="n0p4nWnZGmXTk2F-oxNU-6">
          <mxGeometry relative="1" as="geometry" />
        </mxCell>
        <mxCell id="n0p4nWnZGmXTk2F-oxNU-3" value="RemoteAuthenticationParams" style="rounded=0;whiteSpace=wrap;html=1;" vertex="1" parent="1">
          <mxGeometry x="140" y="100" width="178" height="40" as="geometry" />
        </mxCell>
        <mxCell id="n0p4nWnZGmXTk2F-oxNU-6" value="AuthenticationParams" style="rounded=0;whiteSpace=wrap;html=1;" vertex="1" parent="1">
          <mxGeometry x="80" y="335" width="120" height="40" as="geometry" />
        </mxCell>
      </root>
    </mxGraphModel>
  </diagram>
</mxfile>
